<svg width="140" height="202" viewBox="0 0 140 202" fill="none" xmlns="http://www.w3.org/2000/svg">
<path fill-rule="evenodd" clip-rule="evenodd" d="M79 143H57L59.5284 140.712C64.74 135.997 68.5377 129.926 70.4972 123.176C71.494 119.743 72 116.185 72 112.61V18H105.5V0H27.5821C22.2886 0 17.0896 1.40238 12.5143 4.06442C8.14525 6.60639 4.81279 10.6079 3.1033 15.3647L2.30083 17.5977C0.778413 21.834 0 26.3016 0 30.8032V131.126C0 135.669 0.841284 140.173 2.4813 144.41L3.21568 146.307C5.01939 150.967 8.33691 154.885 12.6354 157.432C17.1289 160.095 22.2561 161.5 27.4794 161.5H79V143ZM48 16.9997H28.9145C27.1912 16.9997 25.4874 17.3655 23.9159 18.073L23.517 18.2526C20.9875 19.3914 18.9785 21.4396 17.8887 23.9907C17.3023 25.3634 17 26.8407 17 28.3335V133.134C17 134.322 17.1989 135.501 17.5883 136.623C18.7793 140.054 21.638 142.641 25.1706 143.484L25.9487 143.669C26.8686 143.889 27.8111 144 28.7569 144H48V16.9997Z" fill="#274428"/>
<path d="M105.5 68H84V201.5H85.6829C86.2136 201.5 86.7302 201.33 87.1568 201.014L90.9781 198.186C96.2307 194.299 100.351 189.081 102.913 183.07C104.62 179.065 105.5 174.756 105.5 170.402V162.5H118.278C121.708 162.5 125.087 161.669 128.125 160.077C131.951 158.073 135.073 154.951 137.077 151.125C138.669 148.087 139.5 144.708 139.5 141.278V120.5H118.5V144.5H105.5V68Z" fill="#555A54"/>
</svg>
